<svg width="324" height="191" viewBox="0 0 324 191" fill="none" xmlns="http://www.w3.org/2000/svg">
<path fill-rule="evenodd" clip-rule="evenodd" d="M174.309 145.302C178.671 144.381 178.456 140.73 192.503 140.73C195.01 140.73 199.997 142.538 203.037 143.202C208.848 144.471 219.614 149.269 219.614 149.269C219.614 149.269 224.412 152.117 232.084 152.261C239.757 152.405 243.93 150.355 252.033 150.355C257.943 150.355 263.072 152.261 268.134 152.261C273.197 152.261 280.192 151.627 280.431 147.803C283.648 96.2768 266.367 74.9203 254.507 56.7781C235.701 28.0105 240.888 -15.6151 217.121 5.6397C211.092 11.0313 210.37 15.4783 199.704 21.2422C191.213 25.8304 184.599 26.7415 180.097 29.5471C167.634 37.3136 161.088 48.1344 152.417 53.3117C137.276 62.3525 132.309 58.6883 120.339 64.8746C118.759 65.6912 117.007 66.8432 115.057 67.6164C111.18 69.1543 106.761 70.3991 103.049 72.9679C100.048 75.0442 95.4344 81.026 95.4344 81.026L66.9959 90.7499C66.9959 90.7499 60.6791 93.6307 63.3214 103.91C65.9637 114.189 74.2778 136.934 74.2778 136.934C74.2778 136.934 82.1957 136.823 88.8346 140.73C95.4734 144.636 97.6491 153.177 97.6491 153.177C97.6491 153.177 113.574 148.457 120.339 146.144C122.197 145.508 126.4 143.905 132.824 143.604C139.866 143.275 145.175 146.7 155.412 147.199C161.165 147.48 169.947 146.222 174.309 145.302Z" fill="#FFC752"/>
<path fill-rule="evenodd" clip-rule="evenodd" d="M285.855 113.527C285.614 112.939 284.594 113.212 284.4 113.817C284.215 114.397 284.494 115.004 284.75 115.562L284.784 115.635C287.475 121.509 285.333 129.122 279.952 132.808C279.304 132.418 278.838 131.807 278.375 131.198C277.858 130.518 277.343 129.842 276.58 129.481C275.912 129.165 275.146 129.139 274.405 129.119L267.799 128.942C266.996 128.92 266.028 128.985 265.638 129.675C264.788 131.178 262.515 131.778 261.138 130.715C259.761 129.651 259.997 127.109 261.628 126.481C261.749 126.434 261.875 126.397 262.001 126.36C262.276 126.279 262.55 126.198 262.768 126.02C263.053 125.787 263.191 125.428 263.317 125.085L265.88 118.116C266.041 117.678 266.204 117.228 266.193 116.763C266.17 115.815 265.44 115.035 264.691 114.435C264.573 114.34 264.452 114.246 264.33 114.152L264.33 114.152C263.686 113.651 263.031 113.144 262.676 112.426C262.254 111.573 262.502 110.31 263.427 110.036C268.279 108.599 273.734 107.688 278.252 109.943C278.378 110.006 278.504 110.072 278.631 110.138C279.279 110.475 279.938 110.818 280.663 110.838C281.53 110.862 282.489 110.165 282.331 109.328C282.23 108.793 281.74 108.398 281.27 108.02C280.706 107.566 280.171 107.135 280.376 106.513C280.457 106.267 280.65 106.075 280.838 105.894L286.587 100.316C286.786 99.2608 285.223 98.6845 284.217 99.1023C283.718 99.3092 283.289 99.6393 282.86 99.9692C282.422 100.306 281.985 100.642 281.475 100.847C279.431 101.671 277.242 100.147 275.623 98.6704C269.831 93.3838 264.693 87.4059 260.361 80.9103C260.162 80.6122 259.957 80.2845 259.983 79.9292C260.016 79.4727 260.413 79.1349 260.779 78.8513L270.339 71.4405C271.108 70.8438 272.313 70.2739 272.947 71.0087L290.551 91.4182C290.831 91.7426 291.12 92.086 291.207 92.5025C291.386 93.3585 290.658 94.1325 289.922 94.6231C289.807 94.6995 289.69 94.7746 289.571 94.8502L289.571 94.8503C288.929 95.2603 288.269 95.6817 287.985 96.3644C287.647 97.173 288.383 98.3651 289.206 98.0338C293.423 95.0604 297.831 92.0057 302.944 91.1233C303.912 90.9563 304.964 90.8831 305.825 91.3473C307.741 92.3803 307.471 95.1504 306.743 97.1737C305.414 100.866 303.444 104.334 300.943 107.385C300.445 107.992 299.892 108.723 300.102 109.475C300.399 110.538 301.903 110.669 302.98 110.353C303.15 110.304 303.323 110.248 303.497 110.192L303.497 110.192C304.425 109.896 305.394 109.586 306.237 110.006C306.68 110.226 307.004 110.618 307.314 110.999L323.027 130.314C319.408 133.108 315.725 135.82 311.98 138.449C311.61 138.709 311.197 138.98 310.744 138.943C310.207 138.9 309.814 138.446 309.485 138.027L294.416 118.89C293.773 118.073 294.378 116.853 295.206 116.217C295.505 115.988 295.833 115.791 296.161 115.595C296.739 115.248 297.315 114.903 297.723 114.38C298.361 113.561 298.191 112.032 297.153 111.877C296.562 111.789 296.019 112.193 295.592 112.603C295.259 112.924 294.941 113.267 294.624 113.611L294.624 113.611C293.806 114.495 292.99 115.379 291.899 115.875C289.7 116.876 286.761 115.734 285.855 113.527ZM264.742 125.417C264.713 125.491 264.683 125.567 264.685 125.646C264.689 125.872 264.952 126.024 265.181 126.001C265.41 125.978 265.606 125.835 265.788 125.697L270.656 122.025C270.909 121.834 271.187 121.597 271.186 121.283C271.184 121.038 271.01 120.831 270.845 120.648L268.706 118.269C268.594 118.144 268.474 118.015 268.313 117.966C267.873 117.833 267.534 118.345 267.367 118.766L264.742 125.417ZM272.593 123.129C272.733 123.183 272.837 123.3 272.935 123.412L275.84 126.754C275.913 127.024 275.52 127.158 275.236 127.164L267.48 127.311C267.1 127.319 266.7 127.321 266.367 127.141C267.829 125.368 269.784 123.989 271.963 123.195C272.166 123.121 272.392 123.052 272.593 123.129Z" fill="#373632"/>
<path fill-rule="evenodd" clip-rule="evenodd" d="M117.548 112.908C117.701 110.704 119.351 108.675 121.506 108.038C122.801 107.656 123.703 106.435 124.024 105.146C124.345 103.857 124.177 102.5 123.928 101.196C123.135 97.0297 121.3 92.73 117.607 90.5345C113.603 88.1541 108.441 88.8367 104.028 90.3698C102.105 91.0381 100.106 91.9606 99.0955 93.7008C98.4741 94.7711 98.3035 96.0289 98.1446 97.251C97.8197 99.75 97.4943 102.273 97.729 104.782C97.9636 107.291 98.8081 109.819 100.552 111.667C101.766 112.955 103.627 113.894 105.326 113.35C106.658 112.923 107.88 114.138 109.141 114.737C110.862 115.554 112.894 115.216 114.771 114.86C115.979 114.631 117.464 114.113 117.548 112.908Z" fill="#373632"/>
<path fill-rule="evenodd" clip-rule="evenodd" d="M162.555 146.246C166.916 145.806 171.278 145.366 175.639 144.927C174.86 146.096 173.293 146.425 171.886 146.636C163.613 147.872 155.021 148.42 146.987 146.119C138.568 143.708 129.425 143.793 121.054 146.361C121.12 145.334 122.292 144.783 123.296 144.488C130.064 142.501 137.387 142.374 144.221 144.127C147.245 144.902 150.187 146.039 153.283 146.454C156.354 146.867 159.472 146.556 162.555 146.246Z" fill="#373632"/>
<path fill-rule="evenodd" clip-rule="evenodd" d="M128.332 60.7284C132.608 59.6655 137.141 59.6318 141.274 58.1196C141.494 58.2852 141.713 58.4508 141.933 58.6164C139.998 60.4582 137 60.4782 134.314 60.7C129.209 61.1216 124.207 62.6959 119.804 65.2666C117.691 66.5 115.656 67.9837 113.264 68.5376C107.562 69.8576 102.315 73.002 98.5133 77.3768C98.2566 76.9381 97.8264 76.6003 97.3341 76.4509C100.357 73.8304 103.686 71.5517 107.237 69.6741C109.384 68.5384 111.609 67.5505 113.831 66.5637C115.699 65.7339 117.568 64.9042 119.436 64.0744C122.334 62.7878 125.25 61.4947 128.332 60.7284Z" fill="#373632"/>
<path fill-rule="evenodd" clip-rule="evenodd" d="M211.788 11.627C211.042 12.6269 210.344 13.6662 209.495 14.583C208.371 15.796 207.008 16.7675 205.645 17.7158C201.526 20.5823 197.274 23.3438 192.574 25.153C190.384 25.9959 188.113 26.6253 185.929 27.4818C179.085 30.1655 173.308 34.9983 168.438 40.4291C168.06 40.8516 167.655 41.2978 167.106 41.4593C166.557 41.6207 165.835 41.3478 165.753 40.7909C171.479 35.4531 177.365 30.0097 184.607 26.9194C187.834 25.5427 191.264 24.6648 194.476 23.2554C197.67 21.8533 200.605 19.9448 203.478 17.9844C205.39 16.6803 207.296 15.3373 208.888 13.6697C211.394 11.0446 213.112 7.63076 216.163 5.63892C216.534 5.39726 217.184 5.27256 217.294 5.69544C215.25 7.47257 213.401 9.46482 211.788 11.627Z" fill="#373632"/>
<path fill-rule="evenodd" clip-rule="evenodd" d="M67.9188 33.0091C68.7067 34.5213 70.1261 35.7046 71.7739 36.2227C71.7667 36.4114 71.7595 36.6 71.7524 36.7887C70.3342 37.6306 69.571 39.4139 69.9511 40.9976C70.068 41.485 69.3581 41.8289 68.8971 41.6144C68.4361 41.3999 68.204 40.8998 67.9868 40.4466C67.7142 39.8779 67.4 39.3126 66.9271 38.8887C66.4543 38.4649 65.7943 38.1996 65.1678 38.3292C64.7087 38.4241 64.2885 37.9443 64.2962 37.4839C64.304 37.0234 64.6083 36.6196 64.9435 36.2974C65.2787 35.9752 65.6636 35.6917 65.9128 35.3015C66.2043 34.845 66.2799 34.2892 66.3106 33.7514C66.3298 33.4161 66.3373 33.0673 66.4914 32.7675C66.6455 32.4677 66.9987 32.2347 67.3253 32.3348C67.6226 32.4259 67.777 32.7369 67.9188 33.0091L67.9188 33.0091Z" fill="#373632"/>
<path fill-rule="evenodd" clip-rule="evenodd" d="M239.927 152.653C233.808 153.466 227.496 152.837 221.667 150.835C220.665 150.491 219.481 149.805 219.626 148.773C225.329 151.219 231.686 152.18 237.874 151.532C241.997 151.1 246.037 149.97 250.181 149.816C254.872 149.641 259.503 150.72 264.154 151.346C268.805 151.972 273.73 152.107 277.991 150.173C278.389 149.992 278.818 149.789 279.247 149.877C279.676 149.966 280.01 150.519 279.717 150.839C279.628 150.937 279.502 150.992 279.379 151.043C275.958 152.474 272.226 153.183 268.508 153.108C262.539 152.988 256.713 150.884 250.746 151.078C247.1 151.197 243.543 152.172 239.927 152.653Z" fill="#373632"/>
<path fill-rule="evenodd" clip-rule="evenodd" d="M259.77 48.5926C259.836 49.1472 259.975 49.9235 259.428 50.0771C258.918 50.2203 258.593 49.5769 258.38 49.1002C257.805 47.8181 256.438 46.9171 255.012 46.88C254.447 46.8653 254.352 45.9894 254.748 45.5946C255.145 45.1997 255.749 45.1056 256.252 44.8517C257.034 44.4561 257.551 43.6691 257.806 42.8417C258.06 42.0143 258.085 41.1382 258.107 40.2742C258.113 40.0556 258.367 39.9056 258.588 39.934C258.809 39.9625 258.991 40.117 259.136 40.2829C260.131 41.42 260.002 43.2743 261.142 44.2727C261.671 44.7365 262.421 44.9552 262.831 45.5239C262.511 45.8994 261.945 45.919 261.467 46.0595C260.396 46.3745 259.64 47.5024 259.77 48.5926H259.77Z" fill="#373632"/>
<path fill-rule="evenodd" clip-rule="evenodd" d="M96.7237 44.7992C97.5175 45.3749 97.9324 46.3167 98.5764 47.0509C99.2587 47.8287 100.215 48.3705 101.242 48.5612C99.7879 49.3476 98.834 50.954 98.8537 52.5839C98.8583 52.9689 98.7996 53.4964 98.4089 53.5299C98.3083 53.5386 98.2089 53.5058 98.1157 53.4673C96.5857 52.8348 95.9586 50.6607 94.3096 50.4718C93.728 50.4052 93.6251 49.5534 93.9622 49.0835C94.2993 48.6135 94.867 48.3501 95.237 47.9047C95.9834 47.0059 95.807 45.5305 96.7237 44.7992Z" fill="#373632"/>
<path fill-rule="evenodd" clip-rule="evenodd" d="M134.29 24.8506C133.926 25.0636 133.444 24.8385 133.178 24.5143C132.913 24.1902 132.777 23.7809 132.523 23.448C131.87 22.5906 130.561 22.3778 129.984 21.4688C129.801 21.18 129.726 20.7647 129.972 20.525C130.07 20.4295 130.203 20.3787 130.326 20.3178C131.205 19.8834 131.648 18.8983 131.865 17.9557C132.083 17.0131 132.152 16.0199 132.591 15.155C132.701 14.9397 132.847 14.7222 133.075 14.6342C133.304 14.5461 133.621 14.6589 133.656 14.897C133.783 15.7638 133.911 16.6306 134.038 17.4975C134.112 17.9991 134.192 18.5185 134.474 18.9433C134.755 19.3682 135.298 19.671 135.791 19.5185C136.133 19.4125 136.407 19.8868 136.284 20.2179C136.161 20.549 135.833 20.7536 135.565 20.9874C134.895 21.5699 134.524 22.468 134.591 23.3439C134.632 23.8854 134.765 24.5723 134.29 24.8506Z" fill="#373632"/>
<path fill-rule="evenodd" clip-rule="evenodd" d="M75.352 89.1267C75.7517 88.8995 76.1459 89.5867 75.8799 89.9574C75.6139 90.3281 75.0949 90.3967 74.6389 90.4693C71.7445 90.9308 69.2489 92.8343 67.513 95.1543C66.6034 96.3697 65.8431 97.8294 66.0458 99.3243C66.1558 100.136 66.4759 101.14 65.8161 101.641C65.0472 100.837 64.6026 99.7414 64.5976 98.6385C64.5887 96.6928 65.8617 94.9847 67.173 93.5257C68.6795 91.8496 70.501 90.1962 72.765 89.9572C73.6736 89.8612 74.5611 89.5764 75.352 89.1267Z" fill="#373632"/>
<path fill-rule="evenodd" clip-rule="evenodd" d="M219.797 164.838C220.825 164.008 221.519 162.79 221.701 161.495C221.77 161.008 222.571 160.986 222.874 161.379C223.177 161.771 223.136 162.312 223.12 162.805C223.1 163.446 223.155 164.116 223.488 164.669C223.821 165.221 224.496 165.616 225.13 165.459C225.379 165.397 225.612 165.669 225.593 165.921C225.575 166.172 225.389 166.38 225.19 166.54C224.415 167.164 223.254 167.441 222.889 168.357C222.76 168.68 222.756 169.036 222.69 169.377C222.623 169.718 222.466 170.075 222.15 170.229C221.833 170.383 221.354 170.193 221.353 169.846C221.349 168.638 220.734 167.445 219.745 166.726C219.458 166.517 219.115 166.307 219.051 165.963C218.965 165.499 219.427 165.138 219.797 164.838L219.797 164.838Z" fill="#373632"/>
<path fill-rule="evenodd" clip-rule="evenodd" d="M76.9853 99.7385C78.2427 100.665 79.7808 101.219 81.35 101.311C81.708 101.332 81.6828 101.861 81.5416 102.185C81.1381 103.109 80.7347 104.033 80.3312 104.957C80.5569 105.279 80.7937 105.653 80.7057 106.034C80.6176 106.416 79.997 106.621 79.8259 106.268C79.1638 104.901 77.4937 104.085 75.9835 104.39C76.0595 103.868 76.3527 103.404 76.5719 102.922C77.0225 101.931 77.1682 100.809 76.9853 99.7385Z" fill="#373632"/>
<path fill-rule="evenodd" clip-rule="evenodd" d="M154.953 137.118C154.423 135.841 153.074 134.936 151.669 134.914C151.285 133.572 152.937 132.464 153.085 131.077C153.115 130.79 153.079 130.494 153.154 130.214C153.23 129.934 153.469 129.663 153.763 129.682C154.172 130.662 154.909 131.506 155.832 132.053C156.072 132.195 156.333 132.326 156.494 132.551C156.655 132.776 156.667 133.134 156.437 133.29C155.251 134.096 155.048 135.706 154.953 137.118Z" fill="#373632"/>
<path fill-rule="evenodd" clip-rule="evenodd" d="M103.513 127.571C103.707 127.479 103.932 127.451 104.143 127.492C104.309 128.9 105.39 130.162 106.774 130.564C106.154 131.79 105.808 133.148 105.767 134.516C105.629 134.625 105.429 134.506 105.295 134.39C104.233 133.468 103.171 132.546 102.109 131.624C103.135 130.552 103.661 129.035 103.513 127.571Z" fill="#373632"/>
<path fill-rule="evenodd" clip-rule="evenodd" d="M245.336 115.293C245.161 115.194 244.969 115.098 244.768 115.113C244.587 115.127 244.42 115.229 244.239 115.232C244.058 115.236 243.856 115.047 243.957 114.899C245.698 113.991 246.405 111.943 246.96 110.086C247.05 109.92 247.329 109.966 247.437 110.121C247.546 110.276 247.539 110.478 247.541 110.666C247.545 111.482 247.789 112.312 248.317 112.941C248.845 113.571 249.676 113.974 250.503 113.902C249.248 114.752 247.879 115.778 247.69 117.263C247.037 116.472 246.235 115.8 245.336 115.293H245.336Z" fill="#373632"/>
<path fill-rule="evenodd" clip-rule="evenodd" d="M108.215 145.825C110.573 144.892 113.023 143.897 114.696 142.018C114.898 141.79 115.108 141.538 115.406 141.462C115.703 141.386 116.09 141.613 116.03 141.909C115.736 143.351 114.259 144.208 112.928 144.883C112.119 145.294 111.309 145.704 110.5 146.115C110.099 146.318 109.68 146.526 109.229 146.529C108.778 146.533 108.291 146.261 108.215 145.825L108.215 145.825Z" fill="#373632"/>
<path fill-rule="evenodd" clip-rule="evenodd" d="M200.74 143.281C201.051 142.821 201.726 142.813 202.285 142.87C204.913 143.138 207.506 143.73 209.984 144.628C211.972 145.348 213.892 146.268 215.628 147.46C213.84 147.585 212.16 146.718 210.503 146.045C208.233 145.123 205.84 144.534 203.457 143.949C202.551 143.726 201.646 143.504 200.74 143.281Z" fill="#373632"/>
<path fill-rule="evenodd" clip-rule="evenodd" d="M71.3095 121.445C70.7158 120.026 70.1667 118.589 69.6633 117.136C69.5395 116.779 69.4185 116.421 69.2975 116.063C68.2885 113.077 67.2792 110.091 66.3849 107.07C66.2806 106.718 66.3888 106.142 66.7444 106.255C66.8904 106.302 66.9627 106.459 67.0182 106.599C68.1873 109.56 69.3565 112.522 70.5256 115.483C71.3124 117.476 72.1126 119.549 71.9697 121.681C71.959 121.842 71.7303 121.909 71.5871 121.831C71.4439 121.753 71.3717 121.594 71.3095 121.445Z" fill="#373632"/>
<path fill-rule="evenodd" clip-rule="evenodd" d="M116.105 134.73C116.227 135.24 116.103 136.032 115.577 135.939C113.992 130.321 112.486 124.681 111.06 119.022C111.012 118.832 110.965 118.628 111.035 118.444C111.104 118.26 111.343 118.126 111.51 118.233C111.594 118.287 111.637 118.383 111.675 118.474C112.917 121.448 113.673 124.592 114.423 127.72C114.984 130.057 115.544 132.393 116.105 134.73Z" fill="#373632"/>
<path fill-rule="evenodd" clip-rule="evenodd" d="M65.4136 77.3856C65.1837 77.558 64.9537 77.7304 64.7238 77.9028C59.6643 74.2512 53.5449 72.0316 47.2823 71.5765C47.195 71.2979 47.1696 71.0007 47.2085 70.7117C52.8696 70.7542 58.5078 72.4374 63.2346 75.496C64.0487 76.0227 64.8512 76.6038 65.4136 77.3856Z" fill="#373632"/>
<path fill-rule="evenodd" clip-rule="evenodd" d="M82.0682 183.418C89.2437 179.665 95.4828 174.201 100.097 167.63C101.02 166.315 101.878 164.958 102.736 163.602C103.088 163.046 103.439 162.491 103.79 161.935C104.377 163.694 103.183 165.501 102.052 166.981C96.98 173.619 91.4725 180.586 83.5468 183.471C83.0562 183.65 82.4335 183.785 82.0682 183.418V183.418Z" fill="#373632"/>
<path fill-rule="evenodd" clip-rule="evenodd" d="M116.154 96.4639C116.664 96.2651 117.239 96.4901 117.718 96.7552C118.753 97.329 119.701 98.152 120.128 99.2414C120.555 100.331 120.344 101.71 119.413 102.437C118.929 102.815 118.194 102.725 117.678 102.391C117.161 102.057 116.813 101.53 116.479 101.019C115.793 99.9671 115.077 98.7693 115.342 97.5481C115.441 97.091 115.711 96.636 116.154 96.4639H116.154Z" fill="#FFC752"/>
<path fill-rule="evenodd" clip-rule="evenodd" d="M22.0578 106.462C21.1373 106.257 20.3374 105.588 19.9863 104.728C19.6353 103.868 19.7428 102.841 20.2648 102.069C20.909 101.116 22.066 100.627 23.1983 100.359C24.3503 100.086 25.5452 99.9877 26.7274 100.069C27.1781 100.101 27.6464 100.165 28.019 100.415C28.3068 100.609 28.5137 100.9 28.6678 101.208C29.1877 102.244 29.1342 103.538 28.5303 104.53C27.9265 105.523 26.7913 106.182 25.6147 106.224C24.4207 106.267 23.2232 106.721 22.0578 106.462ZM23.5729 103.915C24.4557 103.87 25.3357 103.77 26.2058 103.617C26.5594 103.555 26.9384 103.469 27.1733 103.202C27.4082 102.935 27.3793 102.432 27.0411 102.313C25.7472 101.858 24.2405 102.034 23.0911 102.774C22.8253 102.945 22.5497 103.22 22.6318 103.521C22.7276 103.873 23.2029 103.934 23.5729 103.915L23.5729 103.915Z" fill="#373632"/>
<path fill-rule="evenodd" clip-rule="evenodd" d="M85.077 79.5467C85.2265 79.5562 85.2881 79.7631 85.2134 79.8907C85.1493 79.9999 85.03 80.0612 84.9093 80.1101L76.3112 83.4091C75.9678 83.5409 75.3749 83.4707 75.4807 83.124C75.5232 82.9846 75.677 82.9137 75.8146 82.8597C78.8664 81.6624 81.9559 80.5573 85.077 79.5467Z" fill="#373632"/>
<path fill-rule="evenodd" clip-rule="evenodd" d="M112.892 90.9023C111.855 90.953 110.836 91.2679 109.941 91.7847C109.225 92.1979 108.321 91.9893 107.521 91.7692C106.748 91.5566 105.976 91.344 105.203 91.1314C105.155 90.9015 105.435 90.749 105.663 90.6793C107.924 89.9888 110.293 89.5053 112.651 89.714C115.01 89.9227 117.37 90.8918 118.865 92.6942C116.986 91.7589 114.997 90.7993 112.892 90.9023Z" fill="#373632"/>
<path fill-rule="evenodd" clip-rule="evenodd" d="M103.709 96.664C103.802 98.4546 103.041 100.27 101.692 101.479C101.34 101.795 100.892 102.086 100.421 102.012C99.9444 101.938 99.5953 101.492 99.5084 101.026C99.4215 100.56 99.5472 100.081 99.713 99.6358C100.228 98.2545 101.148 97.0214 102.335 96.1233C102.635 95.8957 103.049 95.684 103.373 95.8778C103.631 96.0319 103.694 96.3681 103.709 96.664Z" fill="#FFC752"/>
<path fill-rule="evenodd" clip-rule="evenodd" d="M162.38 172.063C160.443 171.502 158.324 170.133 158.442 168.153C158.523 166.781 159.671 165.723 160.794 164.903C162.337 163.776 163.993 162.798 165.73 161.987C166.909 161.437 168.289 160.772 168.517 159.51C169.85 152.129 175.569 145.689 182.817 143.329C190.064 140.969 198.537 142.756 204.198 147.787C205.32 148.784 206.704 149.992 208.136 149.508C211.014 148.537 214.231 147.878 217.05 149.003C218.091 149.418 219.142 150.267 219.09 151.369C219.065 151.891 218.792 152.367 218.506 152.808C216.728 155.547 214.159 157.784 211.177 159.191C209.701 159.887 208.733 161.336 208.146 162.836C207.559 164.336 207.28 165.936 206.752 167.457C204.653 173.5 198.541 177.766 192.083 178.523C185.625 179.28 179.025 176.831 174.08 172.684C173.516 172.21 172.814 171.68 172.109 171.908C168.982 172.923 165.539 172.977 162.38 172.063ZM172.226 166.478C172.549 166.631 172.921 166.636 173.279 166.632C181.035 166.543 188.465 163.768 195.703 161.031C198.842 159.844 201.981 158.657 205.121 157.47C205.762 157.228 206.471 156.92 206.714 156.289C206.873 155.875 206.788 155.412 206.678 154.982C205.718 151.227 202.967 148.03 199.536 146.122C196.105 144.213 192.049 143.532 188.115 143.804C182.742 144.175 177.385 146.403 173.915 150.447C170.445 154.492 169.147 160.432 171.277 165.288C171.485 165.761 171.754 166.254 172.226 166.478ZM205.705 162.188C196.658 166.399 187 169.34 177.114 170.895C176.425 171.003 176.128 171.904 176.399 172.535C176.669 173.167 177.297 173.57 177.9 173.914C181.545 175.993 185.669 177.375 189.884 177.434C194.1 177.494 198.404 176.155 201.517 173.363C204.629 170.572 206.404 166.269 205.705 162.188ZM160.061 168.927C160.3 169.643 161.046 170.065 161.763 170.335C164.574 171.395 167.704 171.122 170.687 170.725C182.725 169.12 194.513 165.717 205.52 160.668C209.93 158.645 214.407 156.19 217.017 152.158C217.244 151.808 217.462 151.417 217.419 151.005C217.329 150.137 216.229 149.795 215.342 149.754C213.143 149.653 210.965 150.134 208.818 150.612C208.069 150.778 207.135 151.178 207.205 151.928C207.281 152.752 208.458 152.906 209.272 152.694C210.086 152.481 211.093 152.189 211.659 152.802C212.433 153.64 211.367 154.883 210.389 155.481C203 160.002 194.64 162.719 186.371 165.395C184.42 166.026 182.464 166.659 180.452 167.064C178.724 167.412 176.967 167.59 175.213 167.768C173.572 167.935 171.931 168.101 170.29 168.267C169.458 168.352 168.593 168.432 167.807 168.152C167.022 167.872 166.344 167.117 166.453 166.304C166.573 165.403 167.51 164.882 168.21 164.288C168.911 163.694 169.387 162.493 168.633 161.967C166.067 162.992 163.658 164.395 161.512 166.115C160.628 166.823 159.705 167.862 160.061 168.927ZM208.369 155.46C209.051 155.037 209.733 154.614 210.415 154.191C210.624 154.061 210.863 153.85 210.775 153.624C210.699 153.426 210.433 153.392 210.217 153.39C209.593 153.385 208.901 153.405 208.451 153.828C208.009 154.243 207.971 155.004 208.369 155.46ZM167.925 166.168C167.875 166.222 167.823 166.278 167.801 166.348C167.706 166.647 168.178 166.806 168.481 166.707C168.784 166.607 169.126 166.416 169.392 166.588C169.775 166.837 170.313 166.322 170.173 165.892C170.032 165.462 169.476 165.277 169.031 165.392C168.587 165.507 168.237 165.836 167.925 166.168H167.925Z" fill="#373632"/>
<path fill-rule="evenodd" clip-rule="evenodd" d="M114.126 109.123C113.611 109.259 112.979 109.206 112.662 108.785C112.415 108.457 112.433 108.002 112.553 107.611C112.73 107.038 113.129 106.51 113.691 106.275C114.253 106.041 114.976 106.156 115.361 106.622C115.714 107.049 115.719 107.694 115.447 108.175C115.176 108.657 114.667 108.981 114.126 109.123L114.126 109.123Z" fill="#FFC752"/>
<path fill-rule="evenodd" clip-rule="evenodd" d="M112.086 105.251C111.972 105.534 111.745 105.796 111.441 105.853C110.936 105.946 110.518 105.456 110.33 104.987C110.15 104.537 110.064 104.052 110.077 103.569C110.08 103.426 110.12 103.249 110.261 103.214C110.812 103.077 111.433 103.266 111.809 103.685C112.184 104.103 112.295 104.733 112.086 105.251H112.086Z" fill="#FFC752"/>
<path fill-rule="evenodd" clip-rule="evenodd" d="M197.622 175.045C197.292 175.192 196.783 175.236 196.679 174.895C197.856 174.203 199.034 173.511 200.211 172.82C199.596 173.79 198.683 174.575 197.622 175.045Z" fill="#E7EAEE"/>
<path fill-rule="evenodd" clip-rule="evenodd" d="M105.105 107.596C105.439 107.975 105.733 108.42 105.777 108.92C105.82 109.42 105.542 109.973 105.051 110.112C104.572 110.247 104.079 109.967 103.685 109.668C103.236 109.327 102.806 108.922 102.62 108.396C102.434 107.87 102.567 107.201 103.05 106.91C103.722 106.504 104.588 107.01 105.105 107.596H105.105Z" fill="#FFC752"/>
<path fill-rule="evenodd" clip-rule="evenodd" d="M177.891 172.07C178.395 172.607 178.899 173.144 179.403 173.681C179.484 173.767 179.428 173.933 179.31 173.954C178.322 173.508 177.471 172.774 176.893 171.869C177.071 171.515 177.618 171.779 177.891 172.07L177.891 172.07Z" fill="#E7EAEE"/>
<path fill-rule="evenodd" clip-rule="evenodd" d="M33.0382 152.243C32.5628 151.709 32.1157 151.09 32.0736 150.381C32.0464 149.924 32.193 149.472 32.3939 149.059C33.193 147.415 34.8719 146.268 36.6844 145.877C38.497 145.487 40.4191 145.799 42.1208 146.526C42.7391 146.79 43.3549 147.125 43.7485 147.662C44.3639 148.503 44.2985 149.687 43.8378 150.617C43.3771 151.548 42.583 152.274 41.7771 152.942C41.0347 153.556 40.2311 154.158 39.2824 154.362C38.772 154.471 38.2436 154.46 37.7212 154.448C37.1976 154.436 36.6699 154.423 36.1589 154.31C34.9138 154.035 33.8776 153.187 33.0382 152.243ZM36.4881 149.097C36.0558 148.69 35.3703 148.27 34.925 148.663C34.5435 149 34.2481 149.43 34.0732 149.903C34.9419 149.933 35.818 149.64 36.4881 149.097ZM37.7483 147.108C37.2208 147.232 36.6722 147.367 36.2577 147.711C36.5498 148.002 36.8872 148.278 37.2945 148.364C37.7018 148.449 38.1891 148.287 38.3481 147.909C38.5072 147.531 38.1534 147.012 37.7483 147.108M39.1913 150.645C39.1513 150.956 39.1126 151.281 39.2168 151.577C39.3209 151.874 39.6141 152.132 39.9309 152.09C40.385 152.03 40.584 151.447 41.0188 151.305C40.4615 150.971 39.8366 150.745 39.1913 150.645ZM41.2432 148.104C41.5955 148.21 42.0081 147.912 42.0097 147.55C41.1355 147.248 40.0617 147.718 39.7072 148.559C40.2436 148.667 40.8309 148.487 41.2094 148.098M38.1884 151.781C38.1455 151.676 38.0823 151.567 37.9742 151.529C37.6236 151.403 37.5337 152.043 37.2056 152.218C36.8963 152.382 36.9406 152.898 37.2479 153.066C37.5553 153.234 37.9743 153.075 38.157 152.78C38.3396 152.484 38.3195 152.101 38.1884 151.781ZM35.6088 150.988C35.2926 151.253 34.7158 151.132 34.4965 151.479C34.3048 151.783 34.6177 152.207 34.9802 152.236C35.3427 152.265 35.6729 152.019 35.8893 151.732C36.008 151.575 36.1082 151.38 36.0631 151.189C36.0181 150.999 35.7604 150.861 35.6088 150.988M42.1619 149.857C42.2787 149.742 42.3955 149.626 42.5122 149.511C42.2094 149.223 41.7206 149.29 41.3083 149.377C41.1809 149.404 41.0448 149.435 40.9571 149.53C40.7536 149.75 40.9974 150.133 41.2972 150.175C41.597 150.216 41.88 150.045 42.1328 149.882L42.1619 149.857Z" fill="#373632"/>
<path fill-rule="evenodd" clip-rule="evenodd" d="M195.661 85.391C194.447 84.3109 193.234 83.2308 192.02 82.1508C191.624 81.7989 191.292 81.0469 191.797 80.8788C192.321 81.8488 193.491 82.3123 194.602 82.4388C195.713 82.5653 196.844 82.4333 197.951 82.5843C199.001 82.7274 199.995 83.1194 200.992 83.4727C206.488 85.4211 212.335 86.2608 217.862 88.1239C218.187 88.2332 218.557 88.397 218.627 88.7266C218.704 89.095 218.351 89.4083 218.016 89.5896C216.293 90.5201 213.964 90.2034 212.563 88.8482C211.888 88.1949 210.781 88.6499 209.868 88.9014C208.186 89.3649 206.397 88.9677 204.698 88.5699C202.9 88.1489 201.101 87.7279 199.303 87.3069C198.676 87.1601 198.043 87.0111 197.467 86.7274C196.791 86.3944 196.222 85.8896 195.661 85.391ZM215.93 89.1939C216.216 89.0672 215.89 88.6653 215.595 88.5618C212.691 87.5442 209.741 86.5493 206.671 86.2603C205.079 86.1104 203.507 85.7555 202.008 85.2076C199.999 84.4731 197.958 83.3711 195.845 83.7247C196.027 84.8526 197.136 85.631 198.257 85.9355C199.378 86.2399 200.566 86.2018 201.709 86.418C203.142 86.6892 204.464 87.352 205.857 87.7829C207.249 88.2139 208.83 88.3941 210.121 87.7251C211.036 87.2512 212.166 87.5487 213.094 87.9984C214.021 88.4481 214.906 89.0505 215.93 89.1939Z" fill="#373632"/>
<path fill-rule="evenodd" clip-rule="evenodd" d="M289.94 101.558C290.855 100.845 291.771 100.132 292.686 99.4193C292.949 99.2149 293.232 99.002 293.566 98.9732C294.057 98.931 294.478 99.2923 294.826 99.6337C296.029 100.811 297.171 102.048 298.246 103.338C298.508 103.652 298.179 104.1 297.87 104.37C296.855 105.26 295.839 106.15 294.824 107.04C294.567 107.265 294.291 107.5 293.952 107.559C293.426 107.651 292.936 107.301 292.52 106.97C291.64 106.271 290.759 105.571 289.879 104.872C289.351 104.452 288.777 103.946 288.758 103.279C288.737 102.56 289.365 102.004 289.94 101.558ZM294.545 101.668C294.282 101.38 293.975 101.07 293.581 101.052C293.274 101.038 292.993 101.207 292.735 101.369C292.274 101.66 291.813 101.95 291.351 102.241C291.17 102.354 290.982 102.476 290.88 102.662C290.62 103.137 291.047 103.681 291.441 104.055C292.02 104.604 292.598 105.154 293.176 105.703C293.354 105.871 293.565 106.052 293.811 106.029C293.985 106.012 294.129 105.895 294.259 105.781C294.753 105.343 295.207 104.861 295.612 104.343C295.899 103.976 296.157 103.434 295.842 103.089C295.41 102.616 294.977 102.142 294.545 101.668Z" fill="#FFC752"/>
<path fill-rule="evenodd" clip-rule="evenodd" d="M231.106 53.5774C234.714 60.4138 233.63 68.6214 232.455 76.2338C239.262 79.6259 245.133 84.8063 249.293 91.09C250.586 93.0436 251.753 95.4117 251.011 97.6247C250.111 100.31 246.903 101.425 244.072 101.94C236.983 103.23 229.618 103.042 222.607 101.393C219.96 100.771 216.94 100.002 214.703 101.524C204.835 108.237 191.165 108.821 180.452 103.499C169.74 98.1776 162.224 87.3545 160.472 75.6948C160.137 73.4685 158.114 71.9297 156.313 70.5373C150.148 65.7716 144.836 59.9477 140.688 53.4093C138.954 50.677 137.383 47.3306 138.615 44.3474C140.038 40.9009 144.418 39.7657 148.203 39.6119C156.613 39.27 165.114 41.5722 172.156 46.0985C177 40.1824 184.012 36.0144 191.597 34.542C199.183 33.0695 207.283 34.3041 214.056 37.9651C217.42 39.7835 220.437 42.1604 223.317 44.6549C226.327 47.2618 229.26 50.0789 231.106 53.5774ZM237.086 92.9992C235.586 95.2598 232.484 95.8099 229.737 95.882C221.393 96.1009 213.211 93.8498 205.179 91.6183C199.578 90.0623 193.951 88.4968 188.662 86.1115C185.451 84.6633 182.386 82.9225 179.361 81.1296C168.546 74.7205 157.512 66.7894 153.515 55.0253C152.735 52.7274 154.309 50.1197 156.536 49.0767C158.763 48.0337 161.408 48.2663 163.764 48.9861C164.988 49.3598 166.218 49.8639 167.496 49.7745C168.774 49.685 170.112 48.7407 170.072 47.4838C170.03 46.161 168.616 45.3484 167.373 44.8355C160.342 41.9337 152.607 40.2816 145.053 41.3192C143.454 41.5389 141.755 41.9414 140.688 43.131C138.755 45.2852 139.883 48.6515 141.285 51.1703C147.189 61.772 156.376 70.3615 166.647 77.0186C176.919 83.6758 188.292 88.5138 199.768 92.8821C213.663 98.1716 228.481 102.895 243.226 100.766C244.701 100.553 246.204 100.257 247.467 99.4798C248.729 98.7023 249.717 97.3444 249.651 95.8827C249.606 94.8956 249.103 93.9904 248.583 93.1448C244.577 86.639 238.751 81.226 231.913 77.6583C231.581 78.8995 231.248 80.1407 230.915 81.382C232.997 82.7166 235.133 84.1031 236.536 86.1175C237.939 88.1319 238.442 90.9542 237.086 92.9992ZM230.315 76.549C230.702 76.1894 230.857 75.6559 230.984 75.1477C232.353 69.6835 232.446 63.9154 231.255 58.4112C229.066 58.9307 226.877 59.4501 224.688 59.9696C223.647 60.2166 222.593 60.4652 221.522 60.4628C220.221 60.4599 218.954 60.0877 217.669 59.8867C214.797 59.4374 211.865 59.8474 208.987 60.2574C207.874 60.4158 206.772 59.9465 205.788 59.4134C198.868 55.6674 194.366 48.4074 187.226 45.0854C186.464 44.7312 185.667 44.4178 185.025 43.8819C183.721 42.7927 183.243 40.94 181.863 39.9439C182.932 44.2194 186.337 47.5439 189.931 50.1771C193.525 52.8104 197.492 55.0325 200.523 58.2761C202.076 59.9379 204.436 60.6211 206.712 60.9249C208.989 61.2286 211.322 61.2303 213.528 61.8586C215.208 62.3369 216.842 63.1801 218.588 63.0921C220.211 63.0104 221.665 62.1354 223.21 61.6433C225.471 60.9233 227.907 61.0308 230.281 61.1459C230.761 61.1692 231.372 61.3022 231.442 61.7684C231.526 62.3274 230.755 62.5836 230.179 62.5906C227.387 62.6249 224.29 61.9867 222.029 63.5949C220.281 64.8383 217.887 64.7473 215.796 64.2199C213.705 63.6925 211.703 62.7843 209.558 62.5477C208.034 62.3796 206.481 62.5568 204.968 62.3141C200.743 61.6364 197.822 57.9751 194.523 55.2974C191.987 53.24 189.065 51.6861 186.49 49.6757C183.916 47.6653 181.62 45.0311 181.052 41.8503C180.905 41.0268 179.632 41.2605 178.911 41.7043C177.142 42.7919 175.353 43.8956 173.915 45.3804C172.477 46.8652 171.405 48.7967 171.39 50.8454C171.37 53.694 173.645 56.3941 176.499 56.9083C178.916 57.3436 178.882 61.7917 181.337 61.897C182.915 61.9646 183.736 63.7005 184.442 65.0871C185.148 66.4738 186.762 67.9236 188.093 67.0902C188.96 66.5478 190.062 67.1549 190.965 67.638C191.867 68.1211 193.241 68.3577 193.714 67.4616C191.855 67.1499 190.85 64.6199 192.003 63.1553C192.872 62.0517 194.442 61.7781 195.862 61.7425C197.528 61.7007 199.266 61.8957 200.673 62.7706C202.08 63.6456 203.058 65.3408 202.659 66.9283C202.196 68.771 202.548 70.797 203.609 72.384C204.466 71.8434 205.323 71.3028 206.179 70.7622C207.329 70.0368 208.521 69.295 209.87 69.0789C211.219 68.8627 212.777 69.3125 213.438 70.487C214.099 71.6632 213.688 73.1175 213.263 74.3947C215.529 73.5626 218.216 73.9462 220.147 75.3772C222.689 77.2614 226.138 77.9079 229.208 77.0759C229.608 76.9677 230.014 76.8283 230.315 76.549ZM217.876 42.4148C217.443 42.1728 216.899 41.9403 216.474 42.1952C214.961 43.1041 213.019 42.9178 211.31 42.4513C209.6 41.9848 207.933 41.2655 206.16 41.1927C204.826 41.1379 203.502 41.4547 202.167 41.4551C198.995 41.4561 196.132 39.7056 193.468 38.0154C193.126 37.7985 192.767 37.5627 192.597 37.1998C192.426 36.8369 192.544 36.3139 192.932 36.1926C195.648 39.0716 199.801 40.577 203.771 40.1211C204.861 39.9959 205.947 39.732 207.042 39.8076C208.602 39.9154 210.019 40.6967 211.506 41.1706C212.994 41.6445 214.808 41.745 215.946 40.6922C206.924 33.929 193.661 33.1944 183.921 38.9184C183.77 39.0071 183.597 39.1555 183.659 39.3173C184.65 41.9316 187.434 43.3506 189.83 44.8508C195.257 48.2497 199.571 53.0901 204.614 57.0188C206.152 58.2173 208.049 59.3916 209.951 58.9122C212.673 58.2264 215.55 58.1451 218.307 58.6762C219.52 58.9097 220.725 59.2614 221.96 59.2406C224.502 59.1976 226.856 57.5865 229.392 57.7557C230.13 57.8049 230.721 57.0581 230.758 56.3329C230.794 55.6077 230.435 54.9252 230.064 54.2969C227.159 49.3769 222.907 45.2318 217.876 42.4148ZM177.783 93.1951C180.046 94.5406 183.057 93.583 185.532 94.4989C186.733 94.9432 187.797 95.8248 189.077 95.9096C190.203 95.9842 191.299 95.4191 192.425 95.5036C193.494 95.5839 194.416 96.2308 195.329 96.7823C198.958 98.9735 203.35 99.9218 207.58 99.4279C208.693 99.298 209.71 99.9891 210.776 100.326C211.843 100.663 213.367 100.368 213.515 99.2779C207.434 97.5797 201.573 95.2109 195.726 92.8474C183.624 87.9546 171.338 82.957 161.126 74.9202C161.731 76.868 162.337 78.8158 162.942 80.7636C163.696 83.1897 164.453 85.6258 165.558 87.9189C169.928 96.9951 179.432 102.94 189.382 105.256C193.778 106.279 198.471 106.672 202.763 105.288C199.905 105.055 197.814 102.564 195.153 101.514C192.406 100.429 189.026 100.869 186.722 99.0434C183.922 96.8252 179.029 97.5802 177.222 94.5264C176.883 93.9553 177.207 92.8529 177.783 93.1951ZM171.648 63.5418C171.675 64.9582 172.49 66.3365 173.73 67.0609C174.322 67.4064 175.012 67.6215 175.481 68.1157C176.037 68.7012 176.16 69.6426 175.772 70.3468C175.12 71.5305 173.467 71.7147 172.108 71.5355C171.361 71.437 170.608 71.2682 169.958 70.8928C169.096 70.3947 168.484 69.5787 167.803 68.8585C166.334 67.3042 164.447 66.1333 162.387 65.4967C162.546 67.0398 163.821 68.2154 165.036 69.2064C170.325 73.5188 176.092 77.234 181.986 80.7091C183.911 81.8438 185.852 82.9548 187.855 83.9513C195.195 87.6033 203.231 89.658 211.196 91.6865C214.075 92.4198 216.955 93.1531 219.834 93.8864C220.232 93.9877 220.656 94.0885 221.046 93.9633C221.468 93.828 221.759 93.4594 222.022 93.109C223.904 90.6025 225.695 88.0311 227.393 85.4011C227.475 85.2744 227.56 85.1319 227.533 84.9842C227.498 84.7863 227.285 84.6774 227.096 84.598C224.002 83.2914 220.908 81.9849 217.814 80.6784C217.259 80.4436 216.68 80.2044 216.075 80.2245C215.354 80.2484 214.705 80.6352 214.024 80.8705C209.786 82.3355 205.417 77.8581 200.998 78.66C199.542 78.9243 198.258 79.744 196.856 80.2115C195.454 80.6789 193.698 80.7021 192.71 79.6196C192.137 78.9927 191.944 78.1282 191.608 77.3537C191.272 76.5791 190.648 75.7965 189.791 75.7622C189.371 75.7454 188.969 75.9147 188.556 75.9927C186.928 76.3002 185.374 75.1669 184.339 73.8953C183.304 72.6237 182.505 71.1187 181.158 70.1691C179.625 69.0882 177.563 68.8646 176.138 67.6505C174.692 66.4197 174.15 64.3746 172.645 63.215C172.384 63.0139 171.969 62.8585 171.755 63.108C171.656 63.2245 171.645 63.3896 171.648 63.5418ZM211.557 74.8952C211.252 73.9368 212.392 73.0391 212.299 72.0392C212.184 70.8075 210.446 70.5082 209.232 70.8401C208.067 71.1589 206.977 71.7415 206.071 72.5296C205.028 73.4378 203.614 74.6988 202.499 73.8771C202.206 73.6612 202.022 73.3343 201.863 73.0101C200.854 70.9539 200.523 68.5832 200.932 66.3364C201.135 65.2203 200.258 64.1335 199.197 63.6862C198.136 63.2389 196.936 63.2786 195.782 63.326C195.05 63.3561 194.256 63.4092 193.704 63.8821C193.152 64.355 193.099 65.4074 193.775 65.6863C194.757 66.0917 195.305 67.3013 194.954 68.2888C193.814 69.3984 191.967 69.2399 190.379 69.0041C189.15 68.8215 187.921 68.6388 186.691 68.4561C185.794 68.3229 184.845 68.1667 184.16 67.5832C182.82 66.4422 182.838 63.98 181.154 63.4317C180.702 63.2844 180.205 63.3198 179.75 63.1812C177.474 62.4877 177.842 58.3243 175.493 57.9273C171.77 57.2979 169.115 53.1289 170.17 49.5679C166.72 53.955 164.022 58.9106 162.223 64.1643C164.625 64.6341 166.875 65.8327 168.585 67.5545C169.442 68.417 170.207 69.4358 171.328 69.9266C172.448 70.4174 174.078 70.0659 174.385 68.8996C172.972 68.7537 171.809 67.7127 171.033 66.5432C170.502 65.7407 170.093 64.8161 170.131 63.8595C170.17 62.9029 170.747 61.9243 171.674 61.6262C172.907 61.2295 174.201 62.1264 174.938 63.1744C175.676 64.2223 176.124 65.4756 177.039 66.3786C177.964 67.2915 179.25 67.7338 180.421 68.3141C182.193 69.1927 183.775 70.4423 185.027 71.955C185.9 73.008 186.764 74.2825 188.127 74.5098C189.374 74.7179 190.763 73.9655 191.865 74.5763C193.504 75.4845 192.968 78.554 194.772 79.0829C195.565 79.3156 196.379 78.8737 197.123 78.5178C200.594 76.8578 204.86 76.9024 208.294 78.6345C209.203 79.0929 210.093 79.6732 211.11 79.7678C212.751 79.9205 214.236 78.7792 215.876 78.6151C217.768 78.4257 219.502 79.5378 221.168 80.4383C223.021 81.4397 224.992 82.228 227.031 82.7818C227.388 82.8791 227.774 82.9684 228.124 82.847C228.555 82.6976 228.813 82.2727 229.006 81.8662C229.534 80.7526 229.839 79.5377 229.898 78.3108C226.38 78.8669 222.334 79.2841 219.667 76.964C218.368 75.8335 216.546 75.3065 214.83 75.5648C213.617 75.7475 211.923 76.0453 211.557 74.8952ZM156.852 58.2028C157.953 59.9612 159.053 61.7196 160.154 63.4781C160.289 63.6929 160.518 63.9404 160.753 63.839C160.891 63.7793 160.952 63.6224 160.999 63.4813C162.387 59.3365 164.346 55.3764 166.807 51.7426C166.98 51.487 166.627 51.2051 166.337 51.0916C165.475 50.7545 164.611 50.4169 163.717 50.1712C161.97 49.6908 160.122 49.5706 158.325 49.8207C157.071 49.9954 155.695 50.4664 155.166 51.5966C154.922 52.1163 154.896 52.7088 154.935 53.2795C154.993 54.1259 155.187 54.9632 155.507 55.7511C155.858 56.6143 156.356 57.411 156.852 58.2028ZM235.281 93.2516C236.568 92.5421 236.978 90.8239 236.581 89.4287C236.184 88.0334 235.166 86.8995 234.132 85.8659C232.996 84.731 231.804 83.6513 230.56 82.632C228.496 86.5323 226.142 90.2854 223.526 93.8519C223.359 94.0793 223.504 94.4222 223.749 94.5666C223.994 94.7111 224.296 94.7118 224.582 94.706C227.693 94.6424 230.798 94.3052 233.848 93.6999C234.341 93.6019 234.842 93.4938 235.281 93.2516ZM182.922 95.8378C184.763 95.9882 186.207 97.3887 187.868 98.1816C190.971 99.6625 194.915 99.0379 197.738 100.985C198.607 101.585 199.316 102.4 200.238 102.917C201.236 103.477 202.408 103.647 203.552 103.757C205.87 103.979 208.531 103.866 210.064 102.145C210.151 102.048 210.234 101.943 210.272 101.819C210.46 101.191 209.496 100.911 208.83 100.948C203.537 101.241 197.954 100.443 193.673 97.3739C192.551 96.5699 191.006 97.3668 189.618 97.3964C188.186 97.4269 186.902 96.6119 185.584 96.0613C183.748 95.2942 181.702 95.0193 179.723 95.2741C180.489 96.0712 181.81 95.7469 182.922 95.8378Z" fill="#373632"/>
<path fill-rule="evenodd" clip-rule="evenodd" d="M103.454 86.3241C102.752 85.7715 102.482 84.8634 102.069 84.0795C100.676 81.4421 97.4678 80.1239 94.442 80.1042C91.4161 80.0845 88.5016 81.1322 85.6647 82.1658C81.1433 83.8133 76.6219 85.4607 72.1005 87.1081C67.8865 88.6435 63.2583 90.5453 61.419 94.5716C59.6699 98.4005 61.0561 102.837 62.4549 106.802C65.8241 116.354 69.1934 125.905 72.5626 135.456C72.9916 136.673 73.781 138.135 75.0871 138.024C85.0062 137.184 94.9532 144.562 96.8402 154.158C103.091 152.815 109.129 150.525 114.675 147.392C116.199 146.531 117.736 145.559 118.674 144.1C120.388 141.434 119.658 137.974 118.871 134.918C117.425 129.303 115.979 123.688 114.533 118.072C110.605 117.939 106.568 117.449 103.137 115.566C96.9604 112.176 93.9224 104.162 96.266 97.6071C98.6096 91.0521 106.016 86.6683 113.026 87.6176C120.037 88.567 125.935 94.6945 126.582 101.612C127.229 108.53 122.62 115.574 115.969 117.947C117.172 122.37 118.376 126.794 119.579 131.218C120.438 134.373 121.303 137.585 121.186 140.849C121.002 145.993 118.414 150.727 115.761 155.167C107.801 168.491 97.7803 181.843 83.0616 187.304C77.6648 189.306 71.8914 190.133 66.1436 190.622C63.1433 190.878 60.0988 191.043 57.1389 190.497C53.7745 189.878 50.6518 188.364 47.6804 186.696C24.5117 173.685 8.112 149.667 4.65662 123.684C4.29259 120.947 4.05997 118.173 3.25105 115.529C2.51511 113.124 1.31475 110.872 0.631839 108.451C-0.826769 103.282 0.27943 97.4765 3.54278 93.1741C5.28231 90.8808 5.62625 87.8838 6.57902 85.1819C7.49079 82.5961 9.00406 80.2168 10.9703 78.2773C13.1257 76.1512 15.7797 74.5799 18.4897 73.1941C32.4022 66.08 48.6229 63.4 64.1412 65.6516C79.6595 67.9032 94.3969 75.0749 105.618 85.8358C105.495 86.7104 104.155 86.8767 103.454 86.3241ZM82.6348 148.496C81.5685 147.236 80.5228 145.909 79.9942 144.355C79.4655 142.801 79.536 140.96 80.5671 139.672C80.0321 139.104 79.0847 138.964 78.403 139.352C77.7212 139.74 77.3744 140.617 77.6107 141.355C78.0489 142.723 77.1199 144.359 75.7038 144.713C76.5563 143.062 76.8348 141.132 76.4827 139.314C76.4575 139.184 76.4215 139.042 76.312 138.965C76.0799 138.8 75.7782 139.054 75.6312 139.295C74.7544 140.732 74.7988 142.57 75.3483 144.156C75.8978 145.742 76.8983 147.133 77.8856 148.499C80.3658 147.706 83.3572 149.342 83.9758 151.83C84.5117 153.985 86.7041 155.468 88.9455 155.753C91.1869 156.038 93.4443 155.328 95.4733 154.35C91.8447 153.871 88.019 153.311 85.1616 151.064C84.2137 150.319 83.4108 149.413 82.6348 148.496ZM8.27761 106.343C6.42224 102.138 5.45979 97.5989 4.91552 93.0473C1.93706 97.2384 0.764483 102.626 1.73804 107.646C2.7116 112.666 5.81856 117.253 10.1574 120.076C11.521 120.964 11.7649 122.783 12.0701 124.361C12.8109 128.19 14.626 131.726 16.4204 135.203C19.8879 141.922 23.398 148.705 28.3111 154.491C31.3403 158.058 35.5062 161.432 40.2156 160.994C45.3021 160.521 48.9729 155.551 49.6356 150.578C50.2983 145.605 48.6761 140.642 47.0753 135.879C45.3234 130.666 43.5716 125.454 41.8198 120.241C41.6108 119.619 41.4316 118.852 41.8931 118.379C44.7439 115.461 45.5132 111.04 44.8677 107.047C44.2222 103.053 42.345 99.3678 40.4728 95.7662C39.8139 95.9827 39.8416 96.8901 39.9425 97.5649C40.6976 102.614 38.0043 107.814 33.8182 110.84C29.6321 113.866 24.1828 114.888 19.0067 114.414C17.0449 114.234 15.058 113.837 13.3708 112.838C10.948 111.404 9.40204 108.892 8.27761 106.343ZM63.2545 169.596C61.0573 168.078 59.3255 166.005 57.7309 163.882C55.1676 160.469 52.8816 156.856 50.9016 153.088C49.9008 155.871 48.1091 158.375 45.782 160.243C43.1159 162.383 39.1938 162.504 35.9813 161.285C32.7688 160.066 30.1485 157.706 27.8218 155.213C19.4934 146.29 13.9633 135.091 10.6615 123.431C10.3243 122.24 9.95003 120.953 8.94883 120.204C7.94763 119.454 6.12671 119.715 5.87055 120.926C5.81572 121.185 5.83818 121.453 5.86089 121.716C6.25312 126.271 6.65173 130.86 7.9439 135.251C8.56578 137.365 9.38994 139.415 10.2313 141.454C13.318 148.933 16.6985 156.387 21.6339 162.841C28.1638 171.379 37.1076 177.78 45.9119 184.049C49.1994 186.389 53.1305 188.855 57.0328 187.751C58.6198 187.302 59.9794 186.297 61.2204 185.227C65.4857 181.549 68.8188 176.837 70.8393 171.629C68.1848 172.037 65.4518 171.114 63.2545 169.596ZM43.1258 79.9842C39.3597 77.1911 35.2392 74.7283 30.6704 73.565C26.1015 72.4016 21.0158 72.6525 16.9551 75.0146C15.5575 75.8275 14.3085 76.8692 13.1707 78.0074C9.30985 81.8696 6.66373 87.06 6.5809 92.4707C6.53712 95.3299 7.19255 98.1529 7.94144 100.916C8.6631 103.579 9.49804 106.267 11.0795 108.543C12.6609 110.82 15.1127 112.66 17.9083 112.909C22.2948 113.299 26.8621 112.763 30.74 110.713C34.618 108.663 37.7138 104.96 38.3433 100.681C38.8033 97.5542 37.9643 94.3891 37.9765 91.2301C37.9823 89.6961 38.1905 88.1629 38.5941 86.681C38.9603 85.3358 39.5124 83.9945 40.5099 83.0047C41.5073 82.0148 43.0265 81.4413 44.3822 81.8503C44.4519 81.0729 43.7601 80.4546 43.1258 79.9842ZM102.834 153.653C98.0771 155.099 93.3198 156.545 88.5626 157.991C85.2926 158.985 81.9728 159.987 78.551 160.082C75.1292 160.176 71.5324 159.249 69.1194 156.866C70.4272 159.978 72.6838 162.699 75.5232 164.588C76.2446 165.068 75.9622 166.157 75.6021 166.936C73.5596 171.355 71.5004 175.803 68.6616 179.775C65.8228 183.748 62.1258 187.261 57.5762 189.158C58.6526 189.6 59.7992 189.877 60.9617 189.976C62.6152 190.116 64.2759 189.897 65.9205 189.678C73.1331 188.718 80.5103 187.709 86.9687 184.414C92.6676 181.507 97.3135 176.989 101.862 172.538C105.598 168.882 109.492 164.956 110.726 159.921C111.935 154.991 117.594 151.808 118.132 146.765C113.776 150.295 108.23 152.013 102.834 153.653ZM45.6318 102.996C46.8967 106.649 47.2537 110.741 45.8171 114.333C44.9958 116.386 43.5948 118.311 43.5622 120.516C43.5469 121.548 43.8388 122.558 44.1513 123.543C46.8314 131.992 51.2618 140.145 51.3744 148.993C51.401 151.083 52.4296 153.022 53.5057 154.825C55.5669 158.279 57.899 161.576 60.4747 164.679C62.5697 167.203 65.0288 169.721 68.2555 170.473C69.0825 170.666 69.9794 170.729 70.7605 170.4C72.1722 169.805 72.7551 168.183 73.1868 166.736C73.4034 166.01 73.5795 165.116 73.0269 164.589C69.0032 160.752 66.0232 155.869 64.4743 150.576C64.058 149.153 63.7353 147.683 63.006 146.387C62.5716 145.615 62.0028 144.925 61.5261 144.177C60.3269 142.297 59.7416 140.114 59.1377 137.976C56.8504 129.88 54.0684 121.918 50.8116 114.148C49.8484 111.85 49.5465 109.345 49.2539 106.877C49.1559 106.051 49.0579 105.224 48.9599 104.397C48.5568 100.998 48.1761 97.4243 49.5066 94.2606C50.6826 91.4641 49.5184 88.2407 47.8774 85.6799C46.965 84.256 45.6174 82.7843 43.9064 82.8753C42.116 82.9706 40.9281 84.7204 40.2597 86.3537C39.4154 88.4169 38.956 90.89 40.162 92.772C42.2551 96.0382 44.3669 99.3423 45.6318 102.996ZM44.261 79.3017C47.2924 81.7866 49.938 84.8988 51.0818 88.6097C51.3339 89.4275 52.0782 90.5015 52.7794 89.9953C56.5063 87.3055 60.878 85.6381 65.1927 84.0009C67.0379 83.3007 68.8831 82.6006 70.7284 81.9004C76.811 79.5924 82.9787 77.2635 89.461 76.5648C85.5696 73.3438 80.8706 71.1864 76.0494 69.5842C63.6339 65.458 50.0248 64.8595 37.2832 67.8791C36.0675 68.1673 34.8578 68.488 33.6837 68.9111C31.1251 69.833 28.7235 71.243 26.0406 71.7148C32.6962 72.414 39.1231 75.0901 44.261 79.3017ZM56.1298 116.589C57.8729 117.351 60.4062 115.088 61.5443 116.592C59.4799 117.452 57.3394 118.136 55.1549 118.634C54.7072 118.736 54.7077 119.359 54.8206 119.796C55.6817 123.134 56.9238 126.378 58.5162 129.446C60.1891 128.48 62.4384 129.042 63.8897 130.307C65.341 131.572 66.1505 133.391 66.8001 135.186C67.359 136.731 67.8326 138.306 68.2179 139.902C68.8234 142.409 68.9408 145.603 66.7136 146.966C65.9012 147.463 66.2647 148.684 66.72 149.511C67.7896 151.453 68.8838 153.418 70.4433 155.009C74.5825 159.233 81.939 159.916 86.8119 156.53C82.8667 155.621 79.2901 153.249 76.9578 149.995C75.3482 147.75 74.3403 145.152 73.3618 142.58C69.096 131.367 65.0764 120.064 61.3066 108.682C60.394 105.926 59.4894 103.133 59.2799 100.243C59.0704 97.3527 59.6192 94.3128 61.3773 91.9852C63.576 89.074 67.2577 87.7069 70.7334 86.4854C78.5112 83.752 86.2891 81.0186 94.0669 78.2852C89.8794 76.6168 85.1472 78.0498 80.8718 79.4875C72.6928 82.2381 64.49 84.9981 56.7121 88.704C55.3216 89.3665 53.9239 90.0738 52.8082 91.1237C49.4304 94.3025 49.5337 99.6159 50.5405 104.102C50.5935 104.338 50.6681 104.601 50.8831 104.719C51.0621 104.817 51.283 104.782 51.4845 104.744C53.1559 104.432 54.8274 104.12 56.4988 103.808C58.1388 103.502 59.4122 105.18 60.0561 106.692C60.969 108.835 61.5401 111.119 61.7421 113.433C61.7853 113.928 61.7901 114.486 61.442 114.845C61.0939 115.205 60.2913 115.061 60.3018 114.564C60.3329 113.099 60.1953 111.631 59.8922 110.196C59.542 108.538 58.9066 106.833 57.5543 105.782C56.202 104.731 53.9733 104.634 52.8997 105.959C55.6841 108.678 56.942 112.817 56.1298 116.589ZM117.548 112.908C117.701 110.704 119.351 108.675 121.506 108.038C122.801 107.656 123.703 106.435 124.024 105.146C124.345 103.857 124.177 102.5 123.928 101.196C123.135 97.0297 121.3 92.73 117.607 90.5345C113.603 88.1541 108.441 88.8367 104.028 90.3698C102.105 91.0381 100.106 91.9606 99.0955 93.7008C98.4742 94.7711 98.3035 96.0289 98.1446 97.251C97.8198 99.75 97.4943 102.273 97.729 104.782C97.9636 107.291 98.8082 109.819 100.552 111.667C101.766 112.955 103.627 113.894 105.326 113.35C106.658 112.923 107.88 114.138 109.141 114.737C110.862 115.554 112.894 115.216 114.771 114.86C115.979 114.631 117.464 114.113 117.548 112.908ZM66.3722 139.585C66.058 138.584 65.7438 137.582 65.4296 136.581C64.7641 134.461 64.0271 132.229 62.3336 130.76C61.6576 130.173 60.6344 129.735 59.8807 130.222C59.1152 130.716 59.1338 131.808 59.2713 132.697C59.815 136.214 60.8688 139.654 62.3911 142.882C62.9028 143.967 63.4863 145.053 64.3904 145.855C64.6148 146.053 64.8703 146.239 65.1685 146.287C65.8043 146.39 66.3617 145.843 66.6473 145.276C67.5271 143.529 66.9566 141.447 66.3722 139.585ZM93.4391 150.115C90.4981 149.751 87.7461 148.105 86.0686 145.706C85.4402 144.808 84.9522 143.792 84.8187 142.71C84.7399 142.07 84.7803 141.397 84.5026 140.814C84.2249 140.231 83.4543 139.8 82.9056 140.152C82.8947 141.907 82.915 143.773 83.8798 145.251C84.2122 145.759 84.6433 146.198 85.0719 146.632C86.4158 147.993 87.7765 149.359 89.3723 150.427C90.9681 151.494 92.834 152.255 94.765 152.262C94.6679 151.36 94.3562 150.228 93.4391 150.115ZM81.6184 139.653C80.9868 140.197 80.8717 141.115 80.9065 141.939C81.024 144.728 82.3921 147.401 84.4371 149.34C86.4821 151.279 89.1641 152.508 91.9528 153.052C92.6366 153.185 93.374 153.273 94.0076 152.988C92.1224 152.738 90.2993 152.047 88.7328 150.987C88.1383 150.585 87.5816 150.132 87.0281 149.677C85.5653 148.474 84.0952 147.229 83.0738 145.647C81.933 143.88 81.4122 141.735 81.6184 139.653ZM54.6657 114.726C54.5816 112.006 53.5683 109.322 51.8263 107.205C50.8961 108.052 51.0928 109.519 51.3629 110.736C51.7495 112.478 52.1933 114.324 53.49 115.572C53.6271 115.703 53.7861 115.833 53.9771 115.851C54.4819 115.898 54.6811 115.223 54.6657 114.726ZM87.178 145.769C88.6141 147.534 90.6911 148.786 92.9444 149.245C93.0818 149.273 93.2453 149.291 93.3436 149.192C93.4203 149.116 93.4264 148.995 93.4142 148.889C93.3337 148.182 92.6814 147.66 92.0036 147.408C91.3259 147.157 90.5883 147.094 89.9064 146.854C88.2541 146.271 87.0872 144.566 87.1622 142.844C87.195 142.092 86.607 141.361 85.8545 141.217C85.4157 142.798 86.1364 144.489 87.178 145.769ZM81.3585 149.743C80.5442 149.385 79.6056 149.409 78.7648 149.115C78.4438 149.003 78.1365 149.429 78.2587 149.741C78.3809 150.053 78.7519 150.204 79.0924 150.218C79.4328 150.232 79.77 150.145 80.1107 150.143C81.3299 150.137 82.3605 151.443 82.0503 152.6C81.9311 153.045 82.4354 153.52 82.883 153.385C83.4153 152.035 82.704 150.336 81.3585 149.743ZM90.4607 144.775C89.7445 144.081 89.0223 143.383 88.1813 142.841C87.9622 144.719 89.7678 146.564 91.6887 146.424C91.8652 146.242 91.6772 145.952 91.4954 145.776C91.1505 145.442 90.8056 145.108 90.4607 144.775ZM80.465 151.706C80.6512 151.982 81.2239 151.832 81.1577 151.507C80.7456 151.046 80.1329 150.765 79.5085 150.749C79.5924 151.206 79.966 151.599 80.4246 151.713M74.5087 139.537C74.4897 139.305 74.2145 139.132 73.9923 139.211C73.883 139.546 73.9701 139.936 74.2122 140.195C74.5231 140.198 74.7305 139.77 74.5312 139.535M67.3118 153.901C67.3115 154.246 67.5075 154.585 67.8093 154.761C67.9914 154.417 67.6946 153.932 67.2997 153.928" fill="#373632"/>
<path fill-rule="evenodd" clip-rule="evenodd" d="M286.335 112.584C286.094 111.996 285.074 112.269 284.88 112.874C284.687 113.479 284.999 114.114 285.264 114.692C287.955 120.566 285.813 128.179 280.432 131.865C279.061 131.041 278.508 129.223 277.06 128.538C276.392 128.222 275.626 128.196 274.885 128.176C272.683 128.117 270.481 128.058 268.279 127.999C267.476 127.977 266.509 128.042 266.118 128.732C265.268 130.236 262.995 130.835 261.618 129.772C260.241 128.708 260.477 126.166 262.108 125.538C262.493 125.39 262.93 125.337 263.248 125.077C263.533 124.844 263.671 124.485 263.797 124.142C264.651 121.819 265.506 119.496 266.36 117.173C266.521 116.735 266.684 116.285 266.673 115.82C266.65 114.872 265.92 114.092 265.172 113.492C264.423 112.893 263.579 112.336 263.157 111.483C262.734 110.63 262.982 109.367 263.907 109.093C268.759 107.657 274.214 106.745 278.732 109C279.505 109.386 280.276 109.871 281.144 109.895C282.011 109.919 282.97 109.222 282.811 108.385C282.589 107.207 280.481 106.71 280.856 105.57C280.937 105.324 281.131 105.132 281.318 104.951C283.234 103.091 285.151 101.232 287.067 99.3729C287.266 98.3179 285.704 97.7416 284.697 98.1594C283.69 98.5772 282.966 99.4971 281.955 99.9045C279.911 100.728 277.722 99.2046 276.103 97.7275C270.311 92.4409 265.174 86.463 260.841 79.9674C260.642 79.6693 260.437 79.3416 260.463 78.9863C260.497 78.5298 260.893 78.192 261.259 77.9084C264.446 75.4381 267.632 72.9679 270.819 70.4976C271.589 69.9009 272.793 69.331 273.427 70.0658C279.295 76.869 285.163 83.6722 291.031 90.4753C291.311 90.7997 291.6 91.1431 291.687 91.5596C291.866 92.4156 291.139 93.1896 290.402 93.6802C289.665 94.1708 288.802 94.6129 288.465 95.4215C288.127 96.2301 288.863 97.4222 289.687 97.0909C293.903 94.1175 298.311 91.0628 303.424 90.1804C304.392 90.0134 305.444 89.9402 306.305 90.4044C308.221 91.4374 307.951 94.2075 307.223 96.2308C305.894 99.9226 303.924 103.391 301.423 106.442C300.925 107.049 300.372 107.78 300.582 108.532C300.879 109.595 302.383 109.726 303.46 109.411C304.536 109.095 305.715 108.564 306.717 109.063C307.16 109.283 307.484 109.675 307.794 110.056C313.032 116.495 318.269 122.933 323.507 129.371C319.889 132.165 316.205 134.877 312.46 137.506C312.09 137.766 311.677 138.037 311.224 138C310.687 137.957 310.295 137.503 309.965 137.085C304.942 130.705 299.919 124.326 294.896 117.947C294.253 117.131 294.858 115.91 295.686 115.275C296.513 114.639 297.565 114.257 298.203 113.437C298.841 112.618 298.672 111.089 297.633 110.934C297.042 110.846 296.499 111.25 296.072 111.66C294.88 112.807 293.893 114.243 292.379 114.932C290.18 115.933 287.241 114.791 286.335 112.584ZM281.296 129.81C284.361 126.341 286.284 121.506 284.944 117.106C283.823 113.422 280.518 110.601 276.778 109.462C273.038 108.322 268.939 108.716 265.24 109.98C264.907 110.094 264.519 110.288 264.506 110.634C264.498 110.846 264.643 111.032 264.781 111.196C269.966 117.394 275.151 123.591 280.336 129.788C280.464 129.941 280.619 130.107 280.82 130.108C281.015 130.109 281.169 129.955 281.296 129.81ZM305.307 95.6061C303.344 95.4311 301.781 93.3821 302.162 91.4835C294.624 94.8015 287.85 99.7811 282.484 105.949C284.571 108.697 286.913 111.259 289.471 113.592C289.735 113.832 290.028 114.083 290.387 114.118C290.776 114.155 291.135 113.93 291.455 113.71C297.6 109.486 302.537 103.587 305.566 96.8494C305.771 96.3938 305.812 95.6511 305.307 95.6061ZM277.72 90.0288C278.142 89.6882 278.603 89.2619 278.567 88.7271C278.54 88.3326 278.245 88.0131 277.965 87.7283C276.719 86.4583 275.474 85.1883 274.228 83.9183C273.874 83.5573 273.288 83.4986 272.799 83.643C272.31 83.7874 271.894 84.1 271.49 84.4064C271.177 84.6434 270.854 85.1166 271.165 85.3548C272.849 86.6414 274.361 88.1449 275.649 89.8146C275.884 90.1189 276.148 90.4522 276.53 90.5222C276.968 90.6025 277.376 90.3068 277.72 90.0288ZM282.227 97.5812C282.724 97.6813 283.195 97.3508 283.592 97.0393C283.931 96.7733 284.302 96.4417 284.285 96.0162C284.273 95.7281 284.081 95.4814 283.898 95.256C282.642 93.7102 281.386 92.1645 280.129 90.6188C280.042 90.5118 279.944 90.3978 279.808 90.3697C279.671 90.3415 279.534 90.4074 279.412 90.4742C278.908 90.7506 278.432 91.0779 277.996 91.4492C277.818 91.6001 277.638 91.7744 277.594 92.001C277.543 92.2649 277.691 92.5227 277.837 92.7498C278.854 94.3325 280.069 95.793 281.445 97.0883C281.672 97.3017 281.919 97.5193 282.227 97.5812ZM264.742 124.946C264.713 125.02 264.683 125.096 264.685 125.175C264.689 125.401 264.952 125.552 265.181 125.529C265.41 125.506 265.606 125.363 265.788 125.225C267.411 124.002 269.033 122.778 270.656 121.554C270.909 121.363 271.187 121.125 271.186 120.811C271.184 120.566 271.01 120.36 270.845 120.176C270.132 119.383 269.419 118.59 268.706 117.797C268.594 117.673 268.474 117.543 268.313 117.495C267.873 117.362 267.534 117.873 267.367 118.295C266.492 120.512 265.617 122.729 264.742 124.946ZM272.935 122.941C272.837 122.828 272.733 122.712 272.593 122.658C272.392 122.58 272.166 122.649 271.963 122.723C269.784 123.518 267.829 124.896 266.367 126.67C266.7 126.85 267.1 126.847 267.48 126.84C270.065 126.791 272.651 126.742 275.236 126.692C275.52 126.687 275.913 126.552 275.84 126.283C274.871 125.169 273.903 124.055 272.935 122.941ZM266.032 76.4041C265.857 76.576 265.669 76.7741 265.666 77.0174C265.664 77.1816 265.747 77.3337 265.828 77.4772C266.734 79.0769 267.64 80.6767 268.546 82.2765C268.741 82.6219 268.946 82.9773 269.265 83.2176C269.585 83.458 270.053 83.5539 270.391 83.3389C270.861 83.0399 271.33 82.7408 271.8 82.4417C272.147 82.2209 272.514 81.723 272.179 81.4859C270.237 80.1143 268.656 78.2562 267.625 76.137C267.488 75.8554 267.101 75.7673 266.798 75.8615C266.495 75.9558 266.257 76.1837 266.032 76.4041ZM274.585 92.5548C274.974 92.176 274.993 91.5419 274.777 91.0472C274.562 90.5526 274.157 90.1648 273.763 89.791C272.686 88.7698 271.609 87.7485 270.532 86.7272C270.232 86.4426 269.921 86.151 269.533 86.0011C269.144 85.8513 268.654 85.8773 268.365 86.1732C267.829 86.7233 268.33 87.6148 268.83 88.1974C269.798 89.3266 270.767 90.4558 271.736 91.585C272.102 92.0119 272.484 92.4505 272.994 92.6972C273.504 92.9439 274.181 92.9477 274.585 92.5548ZM276.546 79.0795C277.296 79.0673 277.777 78.1914 277.651 77.465C277.525 76.7387 276.995 76.1531 276.487 75.6105C275.444 74.4952 274.4 73.3799 273.356 72.2645C273.015 71.9002 272.563 71.5012 272.076 71.6302C271.648 71.7437 271.429 72.2461 271.489 72.6778C271.548 73.1095 271.812 73.4838 272.068 73.8396C273.07 75.2319 274.072 76.6242 275.074 78.0164C275.44 78.5259 275.91 79.0899 276.546 79.0795ZM296.448 117.27C296.419 117.44 296.52 117.602 296.617 117.746C297.606 119.21 298.595 120.674 299.585 122.139C299.88 122.576 300.453 122.813 300.978 122.714C301.503 122.616 301.947 122.188 302.057 121.675C302.215 120.935 301.73 120.224 301.271 119.617C300.445 118.527 299.619 117.437 298.794 116.347C298.536 116.007 298.012 115.963 297.616 116.131C297.221 116.299 296.924 116.628 296.642 116.947C296.557 117.043 296.469 117.145 296.448 117.27ZM304.652 120.427C304.939 120.234 305.241 120.023 305.367 119.705C305.581 119.167 305.21 118.591 304.857 118.13C304.025 117.044 303.186 115.964 302.339 114.889C301.992 114.449 301.596 113.98 301.04 113.872C300.551 113.776 300.012 114.02 299.768 114.447C299.524 114.875 299.593 115.453 299.932 115.813C301.233 117.196 302.314 118.777 303.123 120.483C303.37 121.003 304.169 120.751 304.652 120.427ZM262.26 79.5813C262.356 80.0199 262.661 80.3815 262.956 80.7239C264.147 82.1054 265.338 83.487 266.529 84.8685C266.621 84.976 266.716 85.0849 266.835 85.1634C267.121 85.3522 267.538 85.3213 267.792 85.0926C268.046 84.8638 268.114 84.4591 267.947 84.1626C266.912 82.3204 265.876 80.4782 264.841 78.636C264.522 78.0682 263.754 77.7892 263.135 78.0159C262.516 78.2426 262.123 78.9469 262.26 79.5813ZM310.37 128.998C310.196 129.187 310.011 129.404 310.017 129.659C310.022 129.877 310.167 130.065 310.305 130.235C311.273 131.433 312.245 132.627 313.222 133.818C313.384 134.016 313.555 134.22 313.79 134.325C314.36 134.582 314.994 134.163 315.475 133.768C315.688 133.594 315.92 133.374 315.894 133.104C315.879 132.944 315.774 132.809 315.673 132.683C314.546 131.278 313.42 129.874 312.294 128.469C312.057 128.175 311.596 128.139 311.245 128.286C310.893 128.433 310.626 128.719 310.37 128.998ZM269.283 75.8171C270.012 77.759 271.349 79.5708 273.267 80.4286C273.739 80.6396 274.423 80.7246 274.663 80.2737C274.906 79.8183 274.446 79.3247 274.064 78.9736C272.543 77.5782 271.638 75.672 270.768 73.8158C270.496 73.2348 269.507 73.3969 269.198 73.9598C268.889 74.5228 269.058 75.2171 269.283 75.8171ZM307.474 122.689C307.163 122.272 306.836 121.841 306.371 121.6C305.906 121.359 305.26 121.371 304.922 121.767C304.386 122.398 304.972 123.321 305.515 123.945C306.566 125.154 307.523 126.441 308.373 127.793C308.703 128.317 309.525 127.965 310.008 127.572C310.261 127.367 310.54 127.09 310.466 126.777C310.439 126.663 310.367 126.565 310.297 126.471C309.356 125.21 308.415 123.949 307.474 122.689ZM304.911 111.036C304.872 111.5 305.143 111.928 305.402 112.317C306.484 113.941 307.574 115.574 308.923 116.993C309.729 116.942 310.192 115.974 310.028 115.197C309.863 114.42 309.287 113.803 308.771 113.192C308.08 112.377 307.458 111.505 306.914 110.589C306.685 110.203 306.188 109.992 305.745 110.091C305.302 110.19 304.947 110.591 304.911 111.036ZM306.187 129.841C306.54 130.079 307.062 130.036 307.369 129.743C307.703 129.425 307.748 128.898 307.603 128.465C307.458 128.032 307.156 127.669 306.86 127.317C306.004 126.299 305.148 125.281 304.292 124.264C303.973 123.884 303.633 123.489 303.165 123.311C302.698 123.133 302.068 123.263 301.868 123.714C301.657 124.191 302.003 124.714 302.33 125.122C303.486 126.563 304.642 128.004 305.797 129.444C305.914 129.589 306.032 129.736 306.187 129.841ZM316.255 122.742C316.193 122.505 316.024 122.312 315.86 122.128C314.65 120.772 313.441 119.417 312.231 118.061C312.133 117.951 312.028 117.837 311.886 117.796C311.746 117.755 311.596 117.794 311.455 117.833C311.113 117.926 310.754 118.029 310.508 118.28C310.262 118.53 310.186 118.978 310.446 119.214C311.43 120.109 312.309 121.114 313.061 122.203C313.499 122.837 313.948 123.544 314.683 123.801C315.418 124.058 316.449 123.483 316.255 122.742ZM281.681 88.8145C281.359 89.2385 281.571 89.8419 281.833 90.3039C282.619 91.6872 283.754 92.8423 284.876 93.9802C285.164 94.2724 285.466 94.5736 285.855 94.7144C286.243 94.8552 286.745 94.7844 286.972 94.4443C287.285 93.9765 286.928 93.3689 286.582 92.9244C285.71 91.8037 284.838 90.683 283.966 89.5623C283.682 89.1965 283.382 88.8181 282.961 88.6153C282.54 88.4124 281.961 88.4455 281.681 88.8145ZM318.979 129.59C319.363 130.054 319.944 130.569 320.496 130.318C320.977 130.099 321.17 129.37 321.7 129.367C320.77 128.191 319.84 127.015 318.91 125.839C318.535 125.365 318.132 124.87 317.563 124.653C316.993 124.437 316.214 124.631 316.024 125.201C315.848 125.727 316.226 126.262 316.581 126.692C317.381 127.658 318.18 128.624 318.979 129.59ZM284.138 85.24C283.203 83.8036 282.149 82.4422 280.989 81.1737C280.684 80.84 280.372 80.5128 280.06 80.1856C279.804 79.918 279.53 79.6389 279.17 79.5404C278.738 79.4221 278.237 79.6206 278.01 80.0001C277.783 80.3796 277.849 80.9057 278.165 81.2189C279.396 82.442 280.627 83.6651 281.858 84.8883C282.181 85.2094 282.523 85.5421 282.963 85.674C283.403 85.806 283.966 85.6587 284.138 85.24ZM289.869 92.0637C289.982 91.9754 290.105 91.8716 290.12 91.73C290.136 91.5806 290.026 91.4498 289.923 91.3386C288.586 89.8935 287.249 88.4483 285.911 87.0032C285.646 86.7166 285.304 86.403 284.917 86.4801C284.542 86.5549 284.338 86.9895 284.389 87.3617C284.44 87.7339 284.674 88.0535 284.901 88.3558C285.455 89.0941 286.009 89.8323 286.563 90.5705C287.214 91.4374 287.894 92.3308 288.854 92.8515C289.192 92.5889 289.53 92.3263 289.869 92.0637ZM309.662 120.395C309.337 120.044 308.906 119.659 308.438 119.779C308.018 119.887 307.806 120.385 307.873 120.807C307.94 121.229 308.211 121.589 308.472 121.93C309.225 122.911 309.977 123.892 310.73 124.873C311.122 125.384 311.674 125.956 312.307 125.803C312.866 125.667 313.132 124.985 313.005 124.433C312.879 123.88 312.476 123.435 312.089 123.016C311.28 122.142 310.471 121.269 309.662 120.395ZM307.626 131.213C307.263 131.775 307.675 132.497 308.089 133.025C308.736 133.849 309.417 134.648 310.129 135.419C310.411 135.724 310.721 136.039 311.128 136.139C311.57 136.247 312.072 136.052 312.319 135.676C312.565 135.299 312.537 134.77 312.253 134.42C311.587 133.603 310.922 132.785 310.257 131.967C309.921 131.555 309.566 131.127 309.075 130.911C308.584 130.695 307.915 130.767 307.626 131.213ZM275.179 81.8765C274.872 82.3174 275.274 82.8901 275.653 83.2732C276.976 84.6115 278.299 85.9497 279.622 87.2879C279.902 87.5709 280.242 87.8766 280.641 87.8362C281.145 87.7852 281.421 87.1739 281.301 86.6911C281.18 86.2083 280.798 85.8377 280.431 85.4945C279.269 84.4057 278.108 83.317 276.946 82.2282C276.697 81.9949 276.437 81.7549 276.111 81.6458C275.785 81.5367 275.373 81.5974 275.179 81.8765M303.194 111.93C302.756 111.936 302.459 112.424 302.498 112.852C302.538 113.281 302.809 113.65 303.071 113.994C304.013 115.235 304.954 116.476 305.895 117.716C306.079 117.958 306.272 118.208 306.544 118.347C306.817 118.487 307.193 118.48 307.391 118.249C307.676 117.917 307.43 117.418 307.182 117.059C306.153 115.573 305.124 114.086 304.096 112.6C303.875 112.28 303.588 111.925 303.194 111.93ZM318.309 130.986C317.127 129.586 315.945 128.187 314.763 126.787C314.621 126.619 314.465 126.441 314.249 126.385C313.829 126.275 313.43 126.72 313.427 127.148C313.424 127.575 313.683 127.957 313.938 128.303C314.725 129.372 315.578 130.394 316.489 131.364C316.812 131.708 317.183 132.066 317.657 132.124C318.13 132.182 318.672 131.749 318.518 131.305C318.476 131.185 318.392 131.084 318.309 130.986ZM279.071 98.5374C279.369 98.8547 279.719 99.1958 280.159 99.202C280.599 99.2083 280.993 98.6222 280.663 98.3364C279.324 97.1752 278.134 95.8471 277.133 94.3939C276.864 94.004 276.581 93.5819 276.136 93.4077C275.69 93.2335 275.052 93.4775 275.041 93.9481C275.035 94.2271 275.24 94.4623 275.433 94.6673C276.645 95.9574 277.858 97.2474 279.071 98.5374ZM303.57 92.3727C303.706 93.3784 304.691 94.2025 305.724 94.1753C305.893 94.1708 306.074 94.1408 306.197 94.0259C306.317 93.9132 306.356 93.7431 306.39 93.5833C306.546 92.8373 306.557 91.8264 305.823 91.578C305.521 91.4756 305.183 91.5548 304.874 91.4751C304.658 91.4194 304.458 91.2868 304.235 91.2875C303.747 91.2889 303.506 91.8981 303.57 92.3727M264.562 126.98C264.261 126.663 263.807 126.521 263.366 126.507C263.125 126.499 262.875 126.528 262.67 126.652C262.484 126.763 262.35 126.944 262.263 127.141C261.872 128.029 262.675 129.208 263.658 129.135C264.641 129.063 265.234 127.688 264.562 126.98M283.687 111.827C284.108 111.805 284.483 111.443 284.512 111.029C284.526 110.832 284.467 110.63 284.35 110.47C283.998 109.989 283.114 110.066 282.853 110.6C282.592 111.133 283.085 111.858 283.687 111.827ZM287.918 98.2131C288.082 98.3127 288.259 98.4158 288.452 98.4098C288.645 98.4038 288.844 98.2355 288.803 98.0503C288.054 97.3735 287.305 96.6966 286.555 96.0198C286.361 96.449 286.509 96.9681 286.801 97.3397C287.094 97.7113 287.511 97.9662 287.918 98.2131ZM299.853 110.932C300.145 111.18 300.612 110.756 300.533 110.385C300.454 110.014 300.09 109.78 299.757 109.588C299.424 109.396 299.06 109.165 298.977 108.795C298.495 109.494 299.202 110.38 299.853 110.932Z" fill="#373632"/>
</svg>
